<svg width="60" height="60" viewBox="0 0 60 60" fill="none" xmlns="http://www.w3.org/2000/svg">
<g filter="url(#filter0_d_8_76)">
<rect x="10" y="10" width="40" height="40" rx="3" fill="#104BE3"/>
</g>
<path d="M33.418 35H26.8965V34.0908L30.3418 30.2627C30.8522 29.6839 31.2031 29.2145 31.3945 28.8545C31.5905 28.4899 31.6885 28.1139 31.6885 27.7266C31.6885 27.207 31.5312 26.7809 31.2168 26.4482C30.9023 26.1156 30.4831 25.9492 29.959 25.9492C29.3301 25.9492 28.8402 26.1292 28.4893 26.4893C28.1429 26.8447 27.9697 27.3415 27.9697 27.9795H26.7051C26.7051 27.0635 26.999 26.3229 27.5869 25.7578C28.1794 25.1927 28.9701 24.9102 29.959 24.9102C30.8841 24.9102 31.6156 25.154 32.1533 25.6416C32.6911 26.1247 32.96 26.7695 32.96 27.5762C32.96 28.556 32.3356 29.7227 31.0869 31.0762L28.4209 33.9678H33.418V35Z" fill="white"/>
<defs>
<filter id="filter0_d_8_76" x="0" y="0" width="60" height="60" filterUnits="userSpaceOnUse" color-interpolation-filters="sRGB">
<feFlood flood-opacity="0" result="BackgroundImageFix"/>
<feColorMatrix in="SourceAlpha" type="matrix" values="0 0 0 0 0 0 0 0 0 0 0 0 0 0 0 0 0 0 127 0" result="hardAlpha"/>
<feOffset/>
<feGaussianBlur stdDeviation="5"/>
<feColorMatrix type="matrix" values="0 0 0 0 0.227451 0 0 0 0 0.423529 0 0 0 0 0.917647 0 0 0 0.15 0"/>
<feBlend mode="normal" in2="BackgroundImageFix" result="effect1_dropShadow_8_76"/>
<feBlend mode="normal" in="SourceGraphic" in2="effect1_dropShadow_8_76" result="shape"/>
</filter>
</defs>
</svg>
