<svg width="60" height="60" viewBox="0 0 60 60" fill="none" xmlns="http://www.w3.org/2000/svg">
<g filter="url(#filter0_d_8_75)">
<rect x="10" y="10" width="40" height="40" rx="3" fill="#0D0D0D"/>
</g>
<path d="M28.7354 29.4082H29.6855C30.2826 29.3991 30.752 29.2419 31.0938 28.9365C31.4355 28.6312 31.6064 28.2188 31.6064 27.6992C31.6064 26.5326 31.0254 25.9492 29.8633 25.9492C29.3164 25.9492 28.8789 26.1064 28.5508 26.4209C28.2272 26.7308 28.0654 27.1432 28.0654 27.6582H26.8008C26.8008 26.8698 27.0879 26.2158 27.6621 25.6963C28.2409 25.1722 28.9746 24.9102 29.8633 24.9102C30.8021 24.9102 31.5381 25.1585 32.0713 25.6553C32.6045 26.152 32.8711 26.8424 32.8711 27.7266C32.8711 28.1595 32.7298 28.5788 32.4473 28.9844C32.1693 29.39 31.7887 29.693 31.3057 29.8936C31.8525 30.0667 32.2741 30.3538 32.5703 30.7549C32.8711 31.1559 33.0215 31.6458 33.0215 32.2246C33.0215 33.1178 32.7298 33.8265 32.1465 34.3506C31.5632 34.8747 30.8044 35.1367 29.8701 35.1367C28.9359 35.1367 28.1748 34.8838 27.5869 34.3779C27.0036 33.8721 26.7119 33.2044 26.7119 32.375H27.9834C27.9834 32.8991 28.1543 33.3184 28.4961 33.6328C28.8379 33.9473 29.2959 34.1045 29.8701 34.1045C30.4808 34.1045 30.9479 33.945 31.2715 33.626C31.5951 33.307 31.7568 32.849 31.7568 32.252C31.7568 31.6732 31.5791 31.2288 31.2236 30.9189C30.8682 30.609 30.3555 30.4495 29.6855 30.4404H28.7354V29.4082Z" fill="white"/>
<defs>
<filter id="filter0_d_8_75" x="0" y="0" width="60" height="60" filterUnits="userSpaceOnUse" color-interpolation-filters="sRGB">
<feFlood flood-opacity="0" result="BackgroundImageFix"/>
<feColorMatrix in="SourceAlpha" type="matrix" values="0 0 0 0 0 0 0 0 0 0 0 0 0 0 0 0 0 0 127 0" result="hardAlpha"/>
<feOffset/>
<feGaussianBlur stdDeviation="5"/>
<feColorMatrix type="matrix" values="0 0 0 0 0 0 0 0 0 0 0 0 0 0 0 0 0 0 0.15 0"/>
<feBlend mode="normal" in2="BackgroundImageFix" result="effect1_dropShadow_8_75"/>
<feBlend mode="normal" in="SourceGraphic" in2="effect1_dropShadow_8_75" result="shape"/>
</filter>
</defs>
</svg>
